<svg width="134" height="163" viewBox="0 0 134 163" fill="none" xmlns="http://www.w3.org/2000/svg">
<g opacity="0.82">
<g opacity="0.63">
<path style="mix-blend-mode:multiply" d="M67 162.338C101.102 162.338 128.747 157.233 128.747 150.936C128.747 144.639 101.102 139.534 67 139.534C32.8982 139.534 5.25328 144.639 5.25328 150.936C5.25328 157.233 32.8982 162.338 67 162.338Z" fill="url(#paint0_radial_227_1406)"/>
<path d="M67 162.338C101.102 162.338 128.747 157.233 128.747 150.936C128.747 144.639 101.102 139.534 67 139.534C32.8982 139.534 5.25328 144.639 5.25328 150.936C5.25328 157.233 32.8982 162.338 67 162.338Z" fill="url(#paint1_radial_227_1406)"/>
</g>
<g opacity="0.96">
<path style="mix-blend-mode:multiply" d="M67 154.127C101.102 154.127 128.747 151.289 128.747 147.789C128.747 144.289 101.102 141.452 67 141.452C32.8982 141.452 5.25328 144.289 5.25328 147.789C5.25328 151.289 32.8982 154.127 67 154.127Z" fill="url(#paint2_radial_227_1406)"/>
<path d="M67 154.127C101.102 154.127 128.747 151.289 128.747 147.789C128.747 144.289 101.102 141.452 67 141.452C32.8982 141.452 5.25328 144.289 5.25328 147.789C5.25328 151.289 32.8982 154.127 67 154.127Z" fill="url(#paint3_radial_227_1406)"/>
</g>
</g>
<g style="mix-blend-mode:multiply" opacity="0.6">
<path d="M125.27 3.64679L125.124 3.5H124.916H7.62147H7.2632L7.14802 3.83925C7.14601 3.84516 7.14394 3.85122 7.14181 3.85741L2.99757 3.87741L2.49998 3.87981V4.37741V6.79118V7.17033L2.86324 7.27212L2.86401 7.27234L2.8645 7.27247L2.86579 7.27288L2.8866 7.27947C2.90687 7.2861 2.93957 7.2973 2.98293 7.31379C3.06972 7.3468 3.19868 7.40083 3.35582 7.48158C3.6705 7.64329 4.09462 7.91033 4.51977 8.32747C5.35884 9.15076 6.2399 10.5949 6.2399 13.0822V129.864C6.2399 139.041 13.531 146.5 22.5487 146.5H109.992C119.007 146.5 126.301 139.041 126.301 129.864V12.2147C126.483 10.0126 127.345 8.78387 128.122 8.10326C128.517 7.75721 128.899 7.5444 129.179 7.41905C129.319 7.35645 129.433 7.31601 129.509 7.2919C129.546 7.27986 129.574 7.27193 129.591 7.26737L129.608 7.26314L129.608 7.263L129.609 7.26299L129.609 7.26289L129.61 7.2627L129.61 7.26253L130 7.17655V6.77489V4.38012V3.88255L129.502 3.88013L125.399 3.86014C125.397 3.85394 125.395 3.84789 125.393 3.84198L125.355 3.73183L125.273 3.6495L125.27 3.64679Z" fill="url(#paint4_linear_227_1406)" fill-opacity="0.4" style="mix-blend-mode:multiply"/>
<path d="M125.27 3.64679L125.124 3.5H124.916H7.62147H7.2632L7.14802 3.83925C7.14601 3.84516 7.14394 3.85122 7.14181 3.85741L2.99757 3.87741L2.49998 3.87981V4.37741V6.79118V7.17033L2.86324 7.27212L2.86401 7.27234L2.8645 7.27247L2.86579 7.27288L2.8866 7.27947C2.90687 7.2861 2.93957 7.2973 2.98293 7.31379C3.06972 7.3468 3.19868 7.40083 3.35582 7.48158C3.6705 7.64329 4.09462 7.91033 4.51977 8.32747C5.35884 9.15076 6.2399 10.5949 6.2399 13.0822V129.864C6.2399 139.041 13.531 146.5 22.5487 146.5H109.992C119.007 146.5 126.301 139.041 126.301 129.864V12.2147C126.483 10.0126 127.345 8.78387 128.122 8.10326C128.517 7.75721 128.899 7.5444 129.179 7.41905C129.319 7.35645 129.433 7.31601 129.509 7.2919C129.546 7.27986 129.574 7.27193 129.591 7.26737L129.608 7.26314L129.608 7.263L129.609 7.26299L129.609 7.26289L129.61 7.2627L129.61 7.26253L130 7.17655V6.77489V4.38012V3.88255L129.502 3.88013L125.399 3.86014C125.397 3.85394 125.395 3.84789 125.393 3.84198L125.355 3.73183L125.273 3.6495L125.27 3.64679Z" stroke="#9A9898"/>
</g>
<mask id="mask0_227_1406" style="mask-type:alpha" maskUnits="userSpaceOnUse" x="2" y="3" width="129" height="144">
<g style="mix-blend-mode:multiply" opacity="0.6">
<path d="M125.27 3.64679L125.124 3.5H124.916H7.62149H7.26322L7.14803 3.83925C7.14602 3.84516 7.14396 3.85122 7.14183 3.85741L2.99759 3.87741L2.5 3.87981V4.37741V6.79118V7.17033L2.86326 7.27212L2.86403 7.27234L2.86451 7.27247L2.86581 7.27288L2.88661 7.27947C2.90689 7.2861 2.93958 7.2973 2.98294 7.31379C3.06973 7.3468 3.19869 7.40083 3.35583 7.48158C3.67052 7.64329 4.09463 7.91033 4.51978 8.32747C5.35886 9.15076 6.23992 10.5949 6.23992 13.0822V129.864C6.23992 139.041 13.531 146.5 22.5487 146.5H109.992C119.007 146.5 126.301 139.041 126.301 129.864V12.2147C126.483 10.0126 127.345 8.78387 128.122 8.10326C128.517 7.75721 128.899 7.5444 129.179 7.41905C129.319 7.35645 129.433 7.31601 129.509 7.2919C129.546 7.27986 129.574 7.27193 129.592 7.26737L129.608 7.26314L129.608 7.263L129.609 7.26299L129.609 7.26289L129.61 7.2627L129.61 7.26253L130 7.17655V6.77489V4.38012V3.88255L129.502 3.88013L125.399 3.86014C125.397 3.85394 125.395 3.84789 125.393 3.84198L125.355 3.73183L125.273 3.6495L125.27 3.64679Z" fill="url(#paint5_linear_227_1406)"/>
<path d="M125.27 3.64679L125.124 3.5H124.916H7.62149H7.26322L7.14803 3.83925C7.14602 3.84516 7.14396 3.85122 7.14183 3.85741L2.99759 3.87741L2.5 3.87981V4.37741V6.79118V7.17033L2.86326 7.27212L2.86403 7.27234L2.86451 7.27247L2.86581 7.27288L2.88661 7.27947C2.90689 7.2861 2.93958 7.2973 2.98294 7.31379C3.06973 7.3468 3.19869 7.40083 3.35583 7.48158C3.67052 7.64329 4.09463 7.91033 4.51978 8.32747C5.35886 9.15076 6.23992 10.5949 6.23992 13.0822V129.864C6.23992 139.041 13.531 146.5 22.5487 146.5H109.992C119.007 146.5 126.301 139.041 126.301 129.864V12.2147C126.483 10.0126 127.345 8.78387 128.122 8.10326C128.517 7.75721 128.899 7.5444 129.179 7.41905C129.319 7.35645 129.433 7.31601 129.509 7.2919C129.546 7.27986 129.574 7.27193 129.592 7.26737L129.608 7.26314L129.608 7.263L129.609 7.26299L129.609 7.26289L129.61 7.2627L129.61 7.26253L130 7.17655V6.77489V4.38012V3.88255L129.502 3.88013L125.399 3.86014C125.397 3.85394 125.395 3.84789 125.393 3.84198L125.355 3.73183L125.273 3.6495L125.27 3.64679Z" stroke="#9A9898"/>
</g>
</mask>
<g mask="url(#mask0_227_1406)">
<path d="M-272.125 147.187C-284.155 148.446 -302 156.568 -302 156.568V241H178V156.568C178 156.568 159.655 164.69 147.625 165.95C123.565 168.468 111.935 144.669 87.875 147.187C75.8448 148.446 58 156.568 58 156.568C58 156.568 39.6552 164.69 27.625 165.95C3.5647 168.468 -8.0647 144.669 -32.125 147.187C-44.1552 148.446 -62 156.568 -62 156.568C-62 156.568 -80.3448 164.69 -92.375 165.95C-116.435 168.468 -128.065 144.669 -152.125 147.187C-164.155 148.446 -182 156.568 -182 156.568C-182 156.568 -200.345 164.69 -212.375 165.95C-236.435 168.468 -248.065 144.669 -272.125 147.187Z" fill="url(#paint6_linear_227_1406)"/>
<path d="M36.875 147.187C24.8449 148.446 7 156.568 7 156.568V241H487V156.568C487 156.568 468.655 164.69 456.625 165.95C432.565 168.468 420.935 144.669 396.875 147.187C384.845 148.446 367 156.568 367 156.568C367 156.568 348.655 164.69 336.625 165.95C312.565 168.468 300.935 144.669 276.875 147.187C264.845 148.446 247 156.568 247 156.568C247 156.568 228.655 164.69 216.625 165.95C192.565 168.468 180.935 144.669 156.875 147.187C144.845 148.446 127 156.568 127 156.568C127 156.568 108.655 164.69 96.625 165.95C72.5647 168.468 60.9353 144.669 36.875 147.187Z" fill="url(#paint7_linear_227_1406)"/>
</g>
<path style="mix-blend-mode:screen" opacity="0.8" d="M62.5582 10.1273C62.3461 133.24 58.0077 135.47 78.0405 135.47C98.0733 135.47 92.5163 136.158 92.2906 10.1273H62.5582Z" fill="url(#paint8_linear_227_1406)" fill-opacity="0.4"/>
<path style="mix-blend-mode:multiply" d="M7.1872 83.6951V129.723C7.1872 138.65 14.3054 145.888 23.0856 145.888H111.04C119.82 145.888 126.938 138.65 126.938 129.723V83.6951H7.18448H7.1872Z" fill="url(#paint9_radial_227_1406)"/>
<path style="mix-blend-mode:multiply" d="M7.1872 71.1831V129.552C7.1872 138.479 14.3054 145.717 23.0856 145.717H111.04C119.82 145.717 126.938 138.479 126.938 129.552V74.5913C78.0541 74.5913 27.5736 73.0164 7.18448 71.1831H7.1872Z" fill="url(#paint10_linear_227_1406)"/>
<path style="mix-blend-mode:multiply" opacity="0.6" d="M126.962 11.8463C127.343 7.1516 130.683 6.4172 130.683 6.4172V4.01816L126.198 3.99639C126.16 3.87672 126.116 3.75976 126.076 3.64008H8.09568C8.05488 3.75976 8.01136 3.87672 7.97328 3.99639L3.4472 4.01816V6.43624C3.4472 6.43624 7.20896 7.48616 7.20896 12.7385C7.20896 12.7385 10.0242 7.42087 66.3526 7.42087C125.88 7.42087 126.962 11.849 126.962 11.849V11.8463Z" fill="url(#paint11_linear_227_1406)"/>
<path style="mix-blend-mode:screen" d="M26.6597 117.798C26.6597 87.0189 26.5808 22.2258 26.5536 4.3255H7.18721C7.18721 4.3255 1.29025 5.7127 3.24321 6.36822C7.47825 7.79078 7.18721 12.733 7.18721 12.733V115.873C7.18721 148.649 23.227 143.157 40.1427 143.157C43.7549 143.157 26.657 140.043 26.657 117.798H26.6597Z" fill="url(#paint12_linear_227_1406)" fill-opacity="0.4"/>
<path style="mix-blend-mode:screen" d="M107.468 116.901C107.468 86.1214 107.547 21.3282 107.574 3.42792H126.941C126.941 3.42792 133.107 5.47336 130.683 6.41448C126.973 7.8588 126.941 11.8436 126.941 11.8436V114.975C126.941 147.751 110.901 142.259 93.9851 142.259C90.373 142.259 107.471 139.145 107.471 116.898L107.468 116.901Z" fill="url(#paint13_linear_227_1406)" fill-opacity="0.4"/>
<path style="mix-blend-mode:screen" opacity="0.8" d="M30.601 10.1273C30.4949 56.4924 29.4259 86.5919 29.6435 106.113H37.5832V10.1273H30.6037H30.601Z" fill="url(#paint14_linear_227_1406)" fill-opacity="0.4"/>
<path style="mix-blend-mode:screen" opacity="0.8" d="M29.7333 110.988C30.1875 128.455 32.0834 136.15 37.5832 139.534V110.988H29.7333Z" fill="url(#paint15_linear_227_1406)" fill-opacity="0.41"/>
<path d="M133.474 3.25382C133.474 4.98918 132.068 6.39814 130.33 6.39814H3.67025C1.93217 6.39814 0.525925 4.9919 0.525925 3.25382C0.525925 1.51846 1.93217 0.109497 3.67025 0.109497H130.33C132.065 0.109497 133.474 1.51574 133.474 3.25382Z" fill="url(#paint16_linear_227_1406)"/>
<path d="M133.474 3.25382C133.474 4.98918 132.068 6.39814 130.33 6.39814H3.67025C1.93217 6.39814 0.525925 4.9919 0.525925 3.25382C0.525925 1.51846 1.93217 0.109497 3.67025 0.109497H130.33C132.065 0.109497 133.474 1.51574 133.474 3.25382Z" fill="url(#paint17_linear_227_1406)"/>
<path d="M131.026 3.60468H2.67744C1.88864 3.60468 1.17056 3.1994 0.61296 2.53572C0.55856 2.7642 0.528641 3.00628 0.528641 3.2538C0.528641 4.98916 1.93488 6.39812 3.67296 6.39812H130.332C132.068 6.39812 133.477 4.99188 133.477 3.2538C133.477 2.9002 133.417 2.56564 133.311 2.25012C132.732 3.08244 131.926 3.60468 131.032 3.60468H131.026Z" fill="url(#paint18_linear_227_1406)"/>
<path d="M133.14 1.8503C132.623 0.819415 131.559 0.109497 130.33 0.109497H3.67025C2.43809 0.109497 1.37728 0.819415 0.860481 1.8503H133.14Z" fill="url(#paint19_linear_227_1406)"/>
<path d="M5.47632 1.85028C5.47632 1.85028 7.3776 1.7306 10.7069 1.51844C12.3715 1.42868 14.3925 1.31716 16.7099 1.18932C17.8686 1.12948 19.1035 1.06692 20.4037 0.998918C21.7038 0.933638 23.072 1.01796 24.4973 0.996199H108.2C109.628 1.0234 110.996 0.930919 112.293 1.01252C113.594 1.08324 114.828 1.14852 115.987 1.21108C118.307 1.3362 120.328 1.44228 121.99 1.53476C123.655 1.61636 124.963 1.71428 125.855 1.76596C126.748 1.82308 127.221 1.853 127.221 1.853C127.221 1.853 126.745 1.88292 125.855 1.94004C124.963 1.99172 123.655 2.08964 121.99 2.17124C120.326 2.261 118.305 2.3698 115.987 2.49492C114.828 2.55748 113.596 2.62276 112.293 2.69348C110.993 2.77508 109.625 2.6826 108.2 2.70708H24.4973C23.0693 2.68532 21.7038 2.76964 20.4037 2.70436C19.1035 2.63636 17.8686 2.5738 16.7099 2.51396C14.3925 2.38612 12.3715 2.2746 10.7069 2.18484C7.3776 1.97268 5.47632 1.853 5.47632 1.853V1.85028Z" fill="white"/>
<defs>
<radialGradient id="paint0_radial_227_1406" cx="0" cy="0" r="1" gradientUnits="userSpaceOnUse" gradientTransform="translate(67.8093 150.624) rotate(90) scale(11.3859 70.3487)">
<stop stop-color="#1A1A1A" stop-opacity="0.97"/>
<stop offset="0.4" stop-color="#1A1A1A" stop-opacity="0.45"/>
<stop offset="0.89" stop-color="#1A1A1A" stop-opacity="0"/>
</radialGradient>
<radialGradient id="paint1_radial_227_1406" cx="0" cy="0" r="1" gradientUnits="userSpaceOnUse" gradientTransform="translate(67.8093 150.624) rotate(90) scale(11.3859 70.3487)">
<stop stop-color="#1A1A1A" stop-opacity="0.97"/>
<stop offset="0.4" stop-color="#1A1A1A" stop-opacity="0.45"/>
<stop offset="0.89" stop-color="#1A1A1A" stop-opacity="0"/>
</radialGradient>
<radialGradient id="paint2_radial_227_1406" cx="0" cy="0" r="1" gradientUnits="userSpaceOnUse" gradientTransform="translate(67.8093 146.56) rotate(90) scale(6.30292 70.3487)">
<stop stop-color="#1A1A1A" stop-opacity="0.97"/>
<stop offset="0.4" stop-color="#1A1A1A" stop-opacity="0.45"/>
<stop offset="0.89" stop-color="#1A1A1A" stop-opacity="0"/>
</radialGradient>
<radialGradient id="paint3_radial_227_1406" cx="0" cy="0" r="1" gradientUnits="userSpaceOnUse" gradientTransform="translate(67.8093 146.56) rotate(90) scale(6.30292 70.3487)">
<stop stop-color="#1A1A1A" stop-opacity="0.97"/>
<stop offset="0.4" stop-color="#1A1A1A" stop-opacity="0.45"/>
<stop offset="0.89" stop-color="#1A1A1A" stop-opacity="0"/>
</radialGradient>
<linearGradient id="paint4_linear_227_1406" x1="6.24503" y1="74.9986" x2="125.327" y2="74.9986" gradientUnits="userSpaceOnUse">
<stop offset="0.0199" stop-color="#1C1C1C"/>
<stop offset="0.02" stop-color="#363636"/>
<stop offset="0.06" stop-color="#555555"/>
<stop offset="0.09" stop-color="#686868"/>
<stop offset="0.11" stop-color="#6F6F6F"/>
<stop offset="0.27" stop-color="#A6A6A6"/>
<stop offset="0.46" stop-color="#E5E5E5"/>
<stop offset="0.54" stop-color="#E5E5E5"/>
<stop offset="0.55" stop-color="#E5E5E5"/>
<stop offset="0.65" stop-color="#E1E1E1"/>
<stop offset="0.73" stop-color="#D7D7D7"/>
<stop offset="0.81" stop-color="#C6C6C6"/>
<stop offset="0.88" stop-color="#AEADAD"/>
<stop offset="0.92" stop-color="#A1A0A0"/>
<stop offset="0.95" stop-color="#9E9D9D"/>
<stop offset="0.97" stop-color="#959494"/>
<stop offset="0.98" stop-color="#858585"/>
<stop offset="1" stop-color="#6F6F6F"/>
</linearGradient>
<linearGradient id="paint5_linear_227_1406" x1="6.24505" y1="74.9986" x2="125.327" y2="74.9986" gradientUnits="userSpaceOnUse">
<stop offset="0.0199" stop-color="#1C1C1C"/>
<stop offset="0.02" stop-color="#363636"/>
<stop offset="0.06" stop-color="#555555"/>
<stop offset="0.09" stop-color="#686868"/>
<stop offset="0.11" stop-color="#6F6F6F"/>
<stop offset="0.27" stop-color="#A6A6A6"/>
<stop offset="0.46" stop-color="#E5E5E5"/>
<stop offset="0.54" stop-color="#E5E5E5"/>
<stop offset="0.55" stop-color="#E5E5E5"/>
<stop offset="0.65" stop-color="#E1E1E1"/>
<stop offset="0.73" stop-color="#D7D7D7"/>
<stop offset="0.81" stop-color="#C6C6C6"/>
<stop offset="0.88" stop-color="#AEADAD"/>
<stop offset="0.92" stop-color="#A1A0A0"/>
<stop offset="0.95" stop-color="#9E9D9D"/>
<stop offset="0.97" stop-color="#959494"/>
<stop offset="0.98" stop-color="#858585"/>
<stop offset="1" stop-color="#6F6F6F"/>
</linearGradient>
<linearGradient id="paint6_linear_227_1406" x1="-62" y1="147" x2="-62" y2="223" gradientUnits="userSpaceOnUse">
<stop stop-color="#5086B7"/>
<stop offset="0.0001" stop-color="#A0CDF7"/>
<stop offset="0.485" stop-color="#2F6393"/>
<stop offset="1" stop-color="#19354F"/>
</linearGradient>
<linearGradient id="paint7_linear_227_1406" x1="247" y1="147" x2="247" y2="223" gradientUnits="userSpaceOnUse">
<stop stop-color="#C9E5FF"/>
<stop offset="0.0001" stop-color="#A0CDF7"/>
<stop offset="0.485" stop-color="#7DB0DF"/>
<stop offset="1" stop-color="#456F96"/>
</linearGradient>
<linearGradient id="paint8_linear_227_1406" x1="77.4938" y1="151.57" x2="77.4938" y2="10.421" gradientUnits="userSpaceOnUse">
<stop stop-color="#F6F6F5"/>
<stop offset="1" stop-color="white"/>
</linearGradient>
<radialGradient id="paint9_radial_227_1406" cx="0" cy="0" r="1" gradientUnits="userSpaceOnUse" gradientTransform="translate(74.1699 53.941) scale(113.788 113.788)">
<stop offset="0.3" stop-color="white"/>
<stop offset="0.65" stop-color="white"/>
<stop offset="0.76" stop-color="#DBDBDB"/>
<stop offset="1" stop-color="#858585"/>
</radialGradient>
<linearGradient id="paint10_linear_227_1406" x1="67.0653" y1="74.137" x2="67.0653" y2="144.933" gradientUnits="userSpaceOnUse">
<stop offset="0.3" stop-color="white"/>
<stop offset="0.86" stop-color="white"/>
<stop offset="0.9" stop-color="#DBDBDB"/>
<stop offset="1" stop-color="#858585"/>
</linearGradient>
<linearGradient id="paint11_linear_227_1406" x1="6.70848" y1="8.1852" x2="126.486" y2="8.1852" gradientUnits="userSpaceOnUse">
<stop stop-color="#6F6F6F"/>
<stop offset="0.03" stop-color="#797979"/>
<stop offset="0.15" stop-color="#A9A9A9"/>
<stop offset="0.27" stop-color="#CECECE"/>
<stop offset="0.38" stop-color="#E9E9E9"/>
<stop offset="0.47" stop-color="#F9F9F9"/>
<stop offset="0.55" stop-color="white"/>
<stop offset="0.61" stop-color="#F9F9F9"/>
<stop offset="0.69" stop-color="#EBEBEB"/>
<stop offset="0.77" stop-color="#D2D2D2"/>
<stop offset="0.86" stop-color="#B1B0B0"/>
<stop offset="0.89" stop-color="#A1A0A0"/>
<stop offset="1" stop-color="#6F6F6F"/>
</linearGradient>
<linearGradient id="paint12_linear_227_1406" x1="28.8928" y1="73.914" x2="3.03376" y2="73.914" gradientUnits="userSpaceOnUse">
<stop offset="0.1" stop-color="#F6F6F5"/>
<stop offset="1" stop-color="white"/>
</linearGradient>
<linearGradient id="paint13_linear_227_1406" x1="102.667" y1="73.0164" x2="130.882" y2="73.0164" gradientUnits="userSpaceOnUse">
<stop offset="0.23" stop-color="#F6F6F5"/>
<stop offset="0.29" stop-color="#F6F6F6"/>
<stop offset="1" stop-color="white"/>
</linearGradient>
<linearGradient id="paint14_linear_227_1406" x1="33.5984" y1="168.839" x2="33.5984" y2="22.4189" gradientUnits="userSpaceOnUse">
<stop stop-color="#F6F6F5"/>
<stop offset="1" stop-color="white"/>
</linearGradient>
<linearGradient id="paint15_linear_227_1406" x1="33.6582" y1="168.839" x2="33.6582" y2="22.4162" gradientUnits="userSpaceOnUse">
<stop stop-color="#F6F6F5"/>
<stop offset="1" stop-color="white"/>
</linearGradient>
<linearGradient id="paint16_linear_227_1406" x1="67" y1="-0.701063" x2="67" y2="6.7191" gradientUnits="userSpaceOnUse">
<stop stop-color="white"/>
<stop offset="1" stop-color="#B8B8B8"/>
</linearGradient>
<linearGradient id="paint17_linear_227_1406" x1="67" y1="-0.701063" x2="67" y2="6.7191" gradientUnits="userSpaceOnUse">
<stop offset="0.37" stop-color="#F2F2F2"/>
<stop offset="1" stop-color="#B8B8B8"/>
</linearGradient>
<linearGradient id="paint18_linear_227_1406" x1="67" y1="0.468522" x2="67" y2="6.71636" gradientUnits="userSpaceOnUse">
<stop offset="0.51" stop-color="white"/>
<stop offset="1" stop-color="#6E6E6E"/>
</linearGradient>
<linearGradient id="paint19_linear_227_1406" x1="67" y1="6.04181" x2="67" y2="-0.206022" gradientUnits="userSpaceOnUse">
<stop offset="0.51" stop-color="white"/>
<stop offset="0.58" stop-color="#FAFAFA"/>
<stop offset="0.67" stop-color="#EBEBEB"/>
<stop offset="0.76" stop-color="#D3D3D3"/>
<stop offset="0.85" stop-color="#B2B2B2"/>
<stop offset="0.95" stop-color="#888888"/>
<stop offset="1" stop-color="#6E6E6E"/>
</linearGradient>
</defs>
</svg>
